<svg width="1799" height="1580" viewBox="0 0 1799 1580" fill="none" xmlns="http://www.w3.org/2000/svg">

<circle cx="24.6746" cy="5.55554" r="5.00073" fill="#FFE073"/>
<circle cx="1269.1" cy="270.999" r="5.00073" fill="#FFE073"/>
<circle cx="1795.38" cy="328.823" r="2.73603" fill="#EE7B11"/>
<circle cx="990.031" cy="38.2641" r="2.73603" fill="#EE7B11"/>
<circle cx="202.341" cy="549.476" r="2.73603" fill="#EE7B11"/>
<circle cx="1541.31" cy="174.578" r="1.92193" fill="#165DF5"/>
<g opacity="0.2" clip-path="url(#clip0_1_447)">
<path d="M100.605 52C102.262 52 103.605 50.6569 103.605 49C103.605 47.3431 102.262 46 100.605 46C98.9486 46 97.6055 47.3431 97.6055 49C97.6055 50.6569 98.9486 52 100.605 52Z" fill="#B7BBC4"/>
<path d="M124.605 51.5C125.986 51.5 127.105 50.3807 127.105 49C127.105 47.6193 125.986 46.5 124.605 46.5C123.225 46.5 122.105 47.6193 122.105 49C122.105 50.3807 123.225 51.5 124.605 51.5Z" stroke="#B7BBC4"/>
<path d="M148.605 52C150.262 52 151.605 50.6569 151.605 49C151.605 47.3431 150.262 46 148.605 46C146.949 46 145.605 47.3431 145.605 49C145.605 50.6569 146.949 52 148.605 52Z" fill="#B7BBC4"/>
<path d="M172.605 51.5C173.986 51.5 175.105 50.3807 175.105 49C175.105 47.6193 173.986 46.5 172.605 46.5C171.225 46.5 170.105 47.6193 170.105 49C170.105 50.3807 171.225 51.5 172.605 51.5Z" stroke="#B7BBC4"/>
<path d="M196.605 52C198.262 52 199.605 50.6569 199.605 49C199.605 47.3431 198.262 46 196.605 46C194.949 46 193.605 47.3431 193.605 49C193.605 50.6569 194.949 52 196.605 52Z" fill="#B7BBC4"/>
<path d="M220.605 51.5C221.986 51.5 223.105 50.3807 223.105 49C223.105 47.6193 221.986 46.5 220.605 46.5C219.225 46.5 218.105 47.6193 218.105 49C218.105 50.3807 219.225 51.5 220.605 51.5Z" stroke="#B7BBC4"/>
<path d="M244.605 52C246.262 52 247.605 50.6569 247.605 49C247.605 47.3431 246.262 46 244.605 46C242.949 46 241.605 47.3431 241.605 49C241.605 50.6569 242.949 52 244.605 52Z" fill="#B7BBC4"/>
<path d="M100.605 78C102.262 78 103.605 76.6569 103.605 75C103.605 73.3431 102.262 72 100.605 72C98.9486 72 97.6055 73.3431 97.6055 75C97.6055 76.6569 98.9486 78 100.605 78Z" fill="#B7BBC4"/>
<path d="M124.605 77.5C125.986 77.5 127.105 76.3807 127.105 75C127.105 73.6193 125.986 72.5 124.605 72.5C123.225 72.5 122.105 73.6193 122.105 75C122.105 76.3807 123.225 77.5 124.605 77.5Z" stroke="#B7BBC4"/>
<path d="M148.605 78C150.262 78 151.605 76.6569 151.605 75C151.605 73.3431 150.262 72 148.605 72C146.949 72 145.605 73.3431 145.605 75C145.605 76.6569 146.949 78 148.605 78Z" fill="#B7BBC4"/>
<path d="M172.605 77.5C173.986 77.5 175.105 76.3807 175.105 75C175.105 73.6193 173.986 72.5 172.605 72.5C171.225 72.5 170.105 73.6193 170.105 75C170.105 76.3807 171.225 77.5 172.605 77.5Z" stroke="#B7BBC4"/>
<path d="M196.605 78C198.262 78 199.605 76.6569 199.605 75C199.605 73.3431 198.262 72 196.605 72C194.949 72 193.605 73.3431 193.605 75C193.605 76.6569 194.949 78 196.605 78Z" fill="#B7BBC4"/>
<path d="M220.605 77.5C221.986 77.5 223.105 76.3807 223.105 75C223.105 73.6193 221.986 72.5 220.605 72.5C219.225 72.5 218.105 73.6193 218.105 75C218.105 76.3807 219.225 77.5 220.605 77.5Z" stroke="#B7BBC4"/>
<path d="M244.605 78C246.262 78 247.605 76.6569 247.605 75C247.605 73.3431 246.262 72 244.605 72C242.949 72 241.605 73.3431 241.605 75C241.605 76.6569 242.949 78 244.605 78Z" fill="#B7BBC4"/>
<path d="M100.605 104C102.262 104 103.605 102.657 103.605 101C103.605 99.3431 102.262 98 100.605 98C98.9486 98 97.6055 99.3431 97.6055 101C97.6055 102.657 98.9486 104 100.605 104Z" fill="#B7BBC4"/>
<path d="M124.605 103.5C125.986 103.5 127.105 102.381 127.105 101C127.105 99.6193 125.986 98.5 124.605 98.5C123.225 98.5 122.105 99.6193 122.105 101C122.105 102.381 123.225 103.5 124.605 103.5Z" stroke="#B7BBC4"/>
<path d="M148.605 104C150.262 104 151.605 102.657 151.605 101C151.605 99.3431 150.262 98 148.605 98C146.949 98 145.605 99.3431 145.605 101C145.605 102.657 146.949 104 148.605 104Z" fill="#B7BBC4"/>
<path d="M172.605 103.5C173.986 103.5 175.105 102.381 175.105 101C175.105 99.6193 173.986 98.5 172.605 98.5C171.225 98.5 170.105 99.6193 170.105 101C170.105 102.381 171.225 103.5 172.605 103.5Z" stroke="#B7BBC4"/>
<path d="M196.605 104C198.262 104 199.605 102.657 199.605 101C199.605 99.3431 198.262 98 196.605 98C194.949 98 193.605 99.3431 193.605 101C193.605 102.657 194.949 104 196.605 104Z" fill="#B7BBC4"/>
<path d="M220.605 103.5C221.986 103.5 223.105 102.381 223.105 101C223.105 99.6193 221.986 98.5 220.605 98.5C219.225 98.5 218.105 99.6193 218.105 101C218.105 102.381 219.225 103.5 220.605 103.5Z" stroke="#B7BBC4"/>
<path d="M244.605 104C246.262 104 247.605 102.657 247.605 101C247.605 99.3431 246.262 98 244.605 98C242.949 98 241.605 99.3431 241.605 101C241.605 102.657 242.949 104 244.605 104Z" fill="#B7BBC4"/>
<path d="M100.605 130C102.262 130 103.605 128.657 103.605 127C103.605 125.343 102.262 124 100.605 124C98.9486 124 97.6055 125.343 97.6055 127C97.6055 128.657 98.9486 130 100.605 130Z" fill="#B7BBC4"/>
<path d="M124.605 129.5C125.986 129.5 127.105 128.381 127.105 127C127.105 125.619 125.986 124.5 124.605 124.5C123.225 124.5 122.105 125.619 122.105 127C122.105 128.381 123.225 129.5 124.605 129.5Z" stroke="#B7BBC4"/>
<path d="M148.605 130C150.262 130 151.605 128.657 151.605 127C151.605 125.343 150.262 124 148.605 124C146.949 124 145.605 125.343 145.605 127C145.605 128.657 146.949 130 148.605 130Z" fill="#B7BBC4"/>
<path d="M172.605 129.5C173.986 129.5 175.105 128.381 175.105 127C175.105 125.619 173.986 124.5 172.605 124.5C171.225 124.5 170.105 125.619 170.105 127C170.105 128.381 171.225 129.5 172.605 129.5Z" stroke="#B7BBC4"/>
<path d="M196.605 130C198.262 130 199.605 128.657 199.605 127C199.605 125.343 198.262 124 196.605 124C194.949 124 193.605 125.343 193.605 127C193.605 128.657 194.949 130 196.605 130Z" fill="#B7BBC4"/>
<path d="M220.605 129.5C221.986 129.5 223.105 128.381 223.105 127C223.105 125.619 221.986 124.5 220.605 124.5C219.225 124.5 218.105 125.619 218.105 127C218.105 128.381 219.225 129.5 220.605 129.5Z" stroke="#B7BBC4"/>
<path d="M244.605 130C246.262 130 247.605 128.657 247.605 127C247.605 125.343 246.262 124 244.605 124C242.949 124 241.605 125.343 241.605 127C241.605 128.657 242.949 130 244.605 130Z" fill="#B7BBC4"/>
<path d="M100.605 156C102.262 156 103.605 154.657 103.605 153C103.605 151.343 102.262 150 100.605 150C98.9486 150 97.6055 151.343 97.6055 153C97.6055 154.657 98.9486 156 100.605 156Z" fill="#B7BBC4"/>
<path d="M124.605 155.5C125.986 155.5 127.105 154.381 127.105 153C127.105 151.619 125.986 150.5 124.605 150.5C123.225 150.5 122.105 151.619 122.105 153C122.105 154.381 123.225 155.5 124.605 155.5Z" stroke="#B7BBC4"/>
<path d="M148.605 156C150.262 156 151.605 154.657 151.605 153C151.605 151.343 150.262 150 148.605 150C146.949 150 145.605 151.343 145.605 153C145.605 154.657 146.949 156 148.605 156Z" fill="#B7BBC4"/>
<path d="M172.605 155.5C173.986 155.5 175.105 154.381 175.105 153C175.105 151.619 173.986 150.5 172.605 150.5C171.225 150.5 170.105 151.619 170.105 153C170.105 154.381 171.225 155.5 172.605 155.5Z" stroke="#B7BBC4"/>
<path d="M196.605 156C198.262 156 199.605 154.657 199.605 153C199.605 151.343 198.262 150 196.605 150C194.949 150 193.605 151.343 193.605 153C193.605 154.657 194.949 156 196.605 156Z" fill="#B7BBC4"/>
<path d="M220.605 155.5C221.986 155.5 223.105 154.381 223.105 153C223.105 151.619 221.986 150.5 220.605 150.5C219.225 150.5 218.105 151.619 218.105 153C218.105 154.381 219.225 155.5 220.605 155.5Z" stroke="#B7BBC4"/>
<path d="M244.605 156C246.262 156 247.605 154.657 247.605 153C247.605 151.343 246.262 150 244.605 150C242.949 150 241.605 151.343 241.605 153C241.605 154.657 242.949 156 244.605 156Z" fill="#B7BBC4"/>
<path d="M100.605 182C102.262 182 103.605 180.657 103.605 179C103.605 177.343 102.262 176 100.605 176C98.9486 176 97.6055 177.343 97.6055 179C97.6055 180.657 98.9486 182 100.605 182Z" fill="#B7BBC4"/>
<path d="M124.605 181.5C125.986 181.5 127.105 180.381 127.105 179C127.105 177.619 125.986 176.5 124.605 176.5C123.225 176.5 122.105 177.619 122.105 179C122.105 180.381 123.225 181.5 124.605 181.5Z" stroke="#B7BBC4"/>
<path d="M148.605 182C150.262 182 151.605 180.657 151.605 179C151.605 177.343 150.262 176 148.605 176C146.949 176 145.605 177.343 145.605 179C145.605 180.657 146.949 182 148.605 182Z" fill="#B7BBC4"/>
<path d="M172.605 181.5C173.986 181.5 175.105 180.381 175.105 179C175.105 177.619 173.986 176.5 172.605 176.5C171.225 176.5 170.105 177.619 170.105 179C170.105 180.381 171.225 181.5 172.605 181.5Z" stroke="#B7BBC4"/>
<path d="M196.605 182C198.262 182 199.605 180.657 199.605 179C199.605 177.343 198.262 176 196.605 176C194.949 176 193.605 177.343 193.605 179C193.605 180.657 194.949 182 196.605 182Z" fill="#B7BBC4"/>
<path d="M220.605 181.5C221.986 181.5 223.105 180.381 223.105 179C223.105 177.619 221.986 176.5 220.605 176.5C219.225 176.5 218.105 177.619 218.105 179C218.105 180.381 219.225 181.5 220.605 181.5Z" stroke="#B7BBC4"/>
<path d="M244.605 182C246.262 182 247.605 180.657 247.605 179C247.605 177.343 246.262 176 244.605 176C242.949 176 241.605 177.343 241.605 179C241.605 180.657 242.949 182 244.605 182Z" fill="#B7BBC4"/>
<path d="M100.605 208C102.262 208 103.605 206.657 103.605 205C103.605 203.343 102.262 202 100.605 202C98.9486 202 97.6055 203.343 97.6055 205C97.6055 206.657 98.9486 208 100.605 208Z" fill="#B7BBC4"/>
<path d="M124.605 207.5C125.986 207.5 127.105 206.381 127.105 205C127.105 203.619 125.986 202.5 124.605 202.5C123.225 202.5 122.105 203.619 122.105 205C122.105 206.381 123.225 207.5 124.605 207.5Z" stroke="#B7BBC4"/>
<path d="M148.605 208C150.262 208 151.605 206.657 151.605 205C151.605 203.343 150.262 202 148.605 202C146.949 202 145.605 203.343 145.605 205C145.605 206.657 146.949 208 148.605 208Z" fill="#B7BBC4"/>
<path d="M172.605 207.5C173.986 207.5 175.105 206.381 175.105 205C175.105 203.619 173.986 202.5 172.605 202.5C171.225 202.5 170.105 203.619 170.105 205C170.105 206.381 171.225 207.5 172.605 207.5Z" stroke="#B7BBC4"/>
<path d="M196.605 208C198.262 208 199.605 206.657 199.605 205C199.605 203.343 198.262 202 196.605 202C194.949 202 193.605 203.343 193.605 205C193.605 206.657 194.949 208 196.605 208Z" fill="#B7BBC4"/>
<path d="M220.605 207.5C221.986 207.5 223.105 206.381 223.105 205C223.105 203.619 221.986 202.5 220.605 202.5C219.225 202.5 218.105 203.619 218.105 205C218.105 206.381 219.225 207.5 220.605 207.5Z" stroke="#B7BBC4"/>
<path d="M244.605 208C246.262 208 247.605 206.657 247.605 205C247.605 203.343 246.262 202 244.605 202C242.949 202 241.605 203.343 241.605 205C241.605 206.657 242.949 208 244.605 208Z" fill="#B7BBC4"/>
</g>
<g opacity="0.2" clip-path="url(#clip1_1_447)">
<path d="M1600.6 21C1602.26 21 1603.6 19.6569 1603.6 18C1603.6 16.3431 1602.26 15 1600.6 15C1598.95 15 1597.6 16.3431 1597.6 18C1597.6 19.6569 1598.95 21 1600.6 21Z" fill="#B7BBC4"/>
<path d="M1624.6 20.5C1625.99 20.5 1627.1 19.3807 1627.1 18C1627.1 16.6193 1625.99 15.5 1624.6 15.5C1623.22 15.5 1622.1 16.6193 1622.1 18C1622.1 19.3807 1623.22 20.5 1624.6 20.5Z" stroke="#B7BBC4"/>
<path d="M1648.6 21C1650.26 21 1651.6 19.6569 1651.6 18C1651.6 16.3431 1650.26 15 1648.6 15C1646.95 15 1645.6 16.3431 1645.6 18C1645.6 19.6569 1646.95 21 1648.6 21Z" fill="#B7BBC4"/>
<path d="M1672.6 20.5C1673.99 20.5 1675.1 19.3807 1675.1 18C1675.1 16.6193 1673.99 15.5 1672.6 15.5C1671.22 15.5 1670.1 16.6193 1670.1 18C1670.1 19.3807 1671.22 20.5 1672.6 20.5Z" stroke="#B7BBC4"/>
<path d="M1696.6 21C1698.26 21 1699.6 19.6569 1699.6 18C1699.6 16.3431 1698.26 15 1696.6 15C1694.95 15 1693.6 16.3431 1693.6 18C1693.6 19.6569 1694.95 21 1696.6 21Z" fill="#B7BBC4"/>
<path d="M1720.6 20.5C1721.99 20.5 1723.1 19.3807 1723.1 18C1723.1 16.6193 1721.99 15.5 1720.6 15.5C1719.22 15.5 1718.1 16.6193 1718.1 18C1718.1 19.3807 1719.22 20.5 1720.6 20.5Z" stroke="#B7BBC4"/>
<path d="M1744.6 21C1746.26 21 1747.6 19.6569 1747.6 18C1747.6 16.3431 1746.26 15 1744.6 15C1742.95 15 1741.6 16.3431 1741.6 18C1741.6 19.6569 1742.95 21 1744.6 21Z" fill="#B7BBC4"/>
<path d="M1600.6 47C1602.26 47 1603.6 45.6569 1603.6 44C1603.6 42.3431 1602.26 41 1600.6 41C1598.95 41 1597.6 42.3431 1597.6 44C1597.6 45.6569 1598.95 47 1600.6 47Z" fill="#B7BBC4"/>
<path d="M1624.6 46.5C1625.99 46.5 1627.1 45.3807 1627.1 44C1627.1 42.6193 1625.99 41.5 1624.6 41.5C1623.22 41.5 1622.1 42.6193 1622.1 44C1622.1 45.3807 1623.22 46.5 1624.6 46.5Z" stroke="#B7BBC4"/>
<path d="M1648.6 47C1650.26 47 1651.6 45.6569 1651.6 44C1651.6 42.3431 1650.26 41 1648.6 41C1646.95 41 1645.6 42.3431 1645.6 44C1645.6 45.6569 1646.95 47 1648.6 47Z" fill="#B7BBC4"/>
<path d="M1672.6 46.5C1673.99 46.5 1675.1 45.3807 1675.1 44C1675.1 42.6193 1673.99 41.5 1672.6 41.5C1671.22 41.5 1670.1 42.6193 1670.1 44C1670.1 45.3807 1671.22 46.5 1672.6 46.5Z" stroke="#B7BBC4"/>
<path d="M1696.6 47C1698.26 47 1699.6 45.6569 1699.6 44C1699.6 42.3431 1698.26 41 1696.6 41C1694.95 41 1693.6 42.3431 1693.6 44C1693.6 45.6569 1694.95 47 1696.6 47Z" fill="#B7BBC4"/>
<path d="M1720.6 46.5C1721.99 46.5 1723.1 45.3807 1723.1 44C1723.1 42.6193 1721.99 41.5 1720.6 41.5C1719.22 41.5 1718.1 42.6193 1718.1 44C1718.1 45.3807 1719.22 46.5 1720.6 46.5Z" stroke="#B7BBC4"/>
<path d="M1744.6 47C1746.26 47 1747.6 45.6569 1747.6 44C1747.6 42.3431 1746.26 41 1744.6 41C1742.95 41 1741.6 42.3431 1741.6 44C1741.6 45.6569 1742.95 47 1744.6 47Z" fill="#B7BBC4"/>
<path d="M1600.6 73C1602.26 73 1603.6 71.6569 1603.6 70C1603.6 68.3431 1602.26 67 1600.6 67C1598.95 67 1597.6 68.3431 1597.6 70C1597.6 71.6569 1598.95 73 1600.6 73Z" fill="#B7BBC4"/>
<path d="M1624.6 72.5C1625.99 72.5 1627.1 71.3807 1627.1 70C1627.1 68.6193 1625.99 67.5 1624.6 67.5C1623.22 67.5 1622.1 68.6193 1622.1 70C1622.1 71.3807 1623.22 72.5 1624.6 72.5Z" stroke="#B7BBC4"/>
<path d="M1648.6 73C1650.26 73 1651.6 71.6569 1651.6 70C1651.6 68.3431 1650.26 67 1648.6 67C1646.95 67 1645.6 68.3431 1645.6 70C1645.6 71.6569 1646.95 73 1648.6 73Z" fill="#B7BBC4"/>
<path d="M1672.6 72.5C1673.99 72.5 1675.1 71.3807 1675.1 70C1675.1 68.6193 1673.99 67.5 1672.6 67.5C1671.22 67.5 1670.1 68.6193 1670.1 70C1670.1 71.3807 1671.22 72.5 1672.6 72.5Z" stroke="#B7BBC4"/>
<path d="M1696.6 73C1698.26 73 1699.6 71.6569 1699.6 70C1699.6 68.3431 1698.26 67 1696.6 67C1694.95 67 1693.6 68.3431 1693.6 70C1693.6 71.6569 1694.95 73 1696.6 73Z" fill="#B7BBC4"/>
<path d="M1720.6 72.5C1721.99 72.5 1723.1 71.3807 1723.1 70C1723.1 68.6193 1721.99 67.5 1720.6 67.5C1719.22 67.5 1718.1 68.6193 1718.1 70C1718.1 71.3807 1719.22 72.5 1720.6 72.5Z" stroke="#B7BBC4"/>
<path d="M1744.6 73C1746.26 73 1747.6 71.6569 1747.6 70C1747.6 68.3431 1746.26 67 1744.6 67C1742.95 67 1741.6 68.3431 1741.6 70C1741.6 71.6569 1742.95 73 1744.6 73Z" fill="#B7BBC4"/>
<path d="M1600.6 99C1602.26 99 1603.6 97.6569 1603.6 96C1603.6 94.3431 1602.26 93 1600.6 93C1598.95 93 1597.6 94.3431 1597.6 96C1597.6 97.6569 1598.95 99 1600.6 99Z" fill="#B7BBC4"/>
<path d="M1624.6 98.5C1625.99 98.5 1627.1 97.3807 1627.1 96C1627.1 94.6193 1625.99 93.5 1624.6 93.5C1623.22 93.5 1622.1 94.6193 1622.1 96C1622.1 97.3807 1623.22 98.5 1624.6 98.5Z" stroke="#B7BBC4"/>
<path d="M1648.6 99C1650.26 99 1651.6 97.6569 1651.6 96C1651.6 94.3431 1650.26 93 1648.6 93C1646.95 93 1645.6 94.3431 1645.6 96C1645.6 97.6569 1646.95 99 1648.6 99Z" fill="#B7BBC4"/>
<path d="M1672.6 98.5C1673.99 98.5 1675.1 97.3807 1675.1 96C1675.1 94.6193 1673.99 93.5 1672.6 93.5C1671.22 93.5 1670.1 94.6193 1670.1 96C1670.1 97.3807 1671.22 98.5 1672.6 98.5Z" stroke="#B7BBC4"/>
<path d="M1696.6 99C1698.26 99 1699.6 97.6569 1699.6 96C1699.6 94.3431 1698.26 93 1696.6 93C1694.95 93 1693.6 94.3431 1693.6 96C1693.6 97.6569 1694.95 99 1696.6 99Z" fill="#B7BBC4"/>
<path d="M1720.6 98.5C1721.99 98.5 1723.1 97.3807 1723.1 96C1723.1 94.6193 1721.99 93.5 1720.6 93.5C1719.22 93.5 1718.1 94.6193 1718.1 96C1718.1 97.3807 1719.22 98.5 1720.6 98.5Z" stroke="#B7BBC4"/>
<path d="M1744.6 99C1746.26 99 1747.6 97.6569 1747.6 96C1747.6 94.3431 1746.26 93 1744.6 93C1742.95 93 1741.6 94.3431 1741.6 96C1741.6 97.6569 1742.95 99 1744.6 99Z" fill="#B7BBC4"/>
<path d="M1600.6 125C1602.26 125 1603.6 123.657 1603.6 122C1603.6 120.343 1602.26 119 1600.6 119C1598.95 119 1597.6 120.343 1597.6 122C1597.6 123.657 1598.95 125 1600.6 125Z" fill="#B7BBC4"/>
<path d="M1624.6 124.5C1625.99 124.5 1627.1 123.381 1627.1 122C1627.1 120.619 1625.99 119.5 1624.6 119.5C1623.22 119.5 1622.1 120.619 1622.1 122C1622.1 123.381 1623.22 124.5 1624.6 124.5Z" stroke="#B7BBC4"/>
<path d="M1648.6 125C1650.26 125 1651.6 123.657 1651.6 122C1651.6 120.343 1650.26 119 1648.6 119C1646.95 119 1645.6 120.343 1645.6 122C1645.6 123.657 1646.95 125 1648.6 125Z" fill="#B7BBC4"/>
<path d="M1672.6 124.5C1673.99 124.5 1675.1 123.381 1675.1 122C1675.1 120.619 1673.99 119.5 1672.6 119.5C1671.22 119.5 1670.1 120.619 1670.1 122C1670.1 123.381 1671.22 124.5 1672.6 124.5Z" stroke="#B7BBC4"/>
<path d="M1696.6 125C1698.26 125 1699.6 123.657 1699.6 122C1699.6 120.343 1698.26 119 1696.6 119C1694.95 119 1693.6 120.343 1693.6 122C1693.6 123.657 1694.95 125 1696.6 125Z" fill="#B7BBC4"/>
<path d="M1720.6 124.5C1721.99 124.5 1723.1 123.381 1723.1 122C1723.1 120.619 1721.99 119.5 1720.6 119.5C1719.22 119.5 1718.1 120.619 1718.1 122C1718.1 123.381 1719.22 124.5 1720.6 124.5Z" stroke="#B7BBC4"/>
<path d="M1744.6 125C1746.26 125 1747.6 123.657 1747.6 122C1747.6 120.343 1746.26 119 1744.6 119C1742.95 119 1741.6 120.343 1741.6 122C1741.6 123.657 1742.95 125 1744.6 125Z" fill="#B7BBC4"/>
<path d="M1600.6 151C1602.26 151 1603.6 149.657 1603.6 148C1603.6 146.343 1602.26 145 1600.6 145C1598.95 145 1597.6 146.343 1597.6 148C1597.6 149.657 1598.95 151 1600.6 151Z" fill="#B7BBC4"/>
<path d="M1624.6 150.5C1625.99 150.5 1627.1 149.381 1627.1 148C1627.1 146.619 1625.99 145.5 1624.6 145.5C1623.22 145.5 1622.1 146.619 1622.1 148C1622.1 149.381 1623.22 150.5 1624.6 150.5Z" stroke="#B7BBC4"/>
<path d="M1648.6 151C1650.26 151 1651.6 149.657 1651.6 148C1651.6 146.343 1650.26 145 1648.6 145C1646.95 145 1645.6 146.343 1645.6 148C1645.6 149.657 1646.95 151 1648.6 151Z" fill="#B7BBC4"/>
<path d="M1672.6 150.5C1673.99 150.5 1675.1 149.381 1675.1 148C1675.1 146.619 1673.99 145.5 1672.6 145.5C1671.22 145.5 1670.1 146.619 1670.1 148C1670.1 149.381 1671.22 150.5 1672.6 150.5Z" stroke="#B7BBC4"/>
<path d="M1696.6 151C1698.26 151 1699.6 149.657 1699.6 148C1699.6 146.343 1698.26 145 1696.6 145C1694.95 145 1693.6 146.343 1693.6 148C1693.6 149.657 1694.95 151 1696.6 151Z" fill="#B7BBC4"/>
<path d="M1720.6 150.5C1721.99 150.5 1723.1 149.381 1723.1 148C1723.1 146.619 1721.99 145.5 1720.6 145.5C1719.22 145.5 1718.1 146.619 1718.1 148C1718.1 149.381 1719.22 150.5 1720.6 150.5Z" stroke="#B7BBC4"/>
<path d="M1744.6 151C1746.26 151 1747.6 149.657 1747.6 148C1747.6 146.343 1746.26 145 1744.6 145C1742.95 145 1741.6 146.343 1741.6 148C1741.6 149.657 1742.95 151 1744.6 151Z" fill="#B7BBC4"/>
<path d="M1600.6 177C1602.26 177 1603.6 175.657 1603.6 174C1603.6 172.343 1602.26 171 1600.6 171C1598.95 171 1597.6 172.343 1597.6 174C1597.6 175.657 1598.95 177 1600.6 177Z" fill="#B7BBC4"/>
<path d="M1624.6 176.5C1625.99 176.5 1627.1 175.381 1627.1 174C1627.1 172.619 1625.99 171.5 1624.6 171.5C1623.22 171.5 1622.1 172.619 1622.1 174C1622.1 175.381 1623.22 176.5 1624.6 176.5Z" stroke="#B7BBC4"/>
<path d="M1648.6 177C1650.26 177 1651.6 175.657 1651.6 174C1651.6 172.343 1650.26 171 1648.6 171C1646.95 171 1645.6 172.343 1645.6 174C1645.6 175.657 1646.95 177 1648.6 177Z" fill="#B7BBC4"/>
<path d="M1672.6 176.5C1673.99 176.5 1675.1 175.381 1675.1 174C1675.1 172.619 1673.99 171.5 1672.6 171.5C1671.22 171.5 1670.1 172.619 1670.1 174C1670.1 175.381 1671.22 176.5 1672.6 176.5Z" stroke="#B7BBC4"/>
<path d="M1696.6 177C1698.26 177 1699.6 175.657 1699.6 174C1699.6 172.343 1698.26 171 1696.6 171C1694.95 171 1693.6 172.343 1693.6 174C1693.6 175.657 1694.95 177 1696.6 177Z" fill="#B7BBC4"/>
<path d="M1720.6 176.5C1721.99 176.5 1723.1 175.381 1723.1 174C1723.1 172.619 1721.99 171.5 1720.6 171.5C1719.22 171.5 1718.1 172.619 1718.1 174C1718.1 175.381 1719.22 176.5 1720.6 176.5Z" stroke="#B7BBC4"/>
<path d="M1744.6 177C1746.26 177 1747.6 175.657 1747.6 174C1747.6 172.343 1746.26 171 1744.6 171C1742.95 171 1741.6 172.343 1741.6 174C1741.6 175.657 1742.95 177 1744.6 177Z" fill="#B7BBC4"/>
</g>
<defs>
<clipPath id="clip0_1_447">
<rect width="155" height="167" fill="white" transform="translate(97.6055 46)"/>
</clipPath>
<clipPath id="clip1_1_447">
<rect width="155" height="167" fill="white" transform="translate(1597.6 15)"/>
</clipPath>
</defs>
</svg>
