<?xml version="1.0" encoding="UTF-8"?>
<svg width="364.040982px" height="68.25px" viewBox="0 0 364.040982 68.25" version="1.1" xmlns="http://www.w3.org/2000/svg" xmlns:xlink="http://www.w3.org/1999/xlink">
    <title>alperformance-logo</title>
    <g id="Page-1" stroke="none" stroke-width="1" fill="none" fill-rule="evenodd">
        <g id="alperformance-logo">
            <g id="image2vector" fill="#EE7B11">
                <path d="M0,68.14 C9.00593742,68.1713333 13.5089061,68.1713333 13.5089061,68.14 C13.5089061,68.093 37.0202371,51.083 37.0202371,51.083 C37.0202371,51.083 37.0032371,68.14 37.0032371,68.14 C37.0032371,68.14 146.013904,68.1766667 364.035237,68.25 C363.997261,61.4400097 363.999173,58.0150146 364.040971,57.9750146 C364.079839,57.9343479 259.052595,57.9343479 48.9592371,57.9750146 C48.9592371,47.8803382 48.9592371,42.833 48.9592371,42.833 C48.9592371,42.833 63.7415487,30.0033561 63.7415487,30.0033561 C63.7415487,30.0033561 68.7036042,35.0055 68.7036042,35.0055 C68.7079625,35.139163 68.7079625,17.9942621 68.7036042,17.9942621 C68.6992458,17.9942621 51.6708259,17.9942621 51.6708259,17.9942621 C51.6708259,17.9942621 56.7087392,23.0188818 56.7087392,23.0188818 C56.7087392,23.0188818 48.4742371,29.4882127 48.3742371,29.4882127 C48.3082371,29.4882127 48.2659037,19.6588085 48.2472371,0 L41.6932371,0 L35.1392371,0 L0,68.14 Z M37.2972371,36.2871449 C26.7552371,45.0890483 21.5025704,49.4516667 21.5392371,49.375 C21.5932371,49.26 37.2122371,22.321 37.2972371,22.4077897 C37.4412371,22.5552632 37.4412371,27.181715 37.2972371,36.2871449 Z" id="path0"></path>
            </g>
            <g id="PERFORMANCE" transform="translate(75.136311, 4.142187)" fill="#1646C3" fill-rule="nonzero">
                <path d="M0,36.8578125 L0,0.4078125 L10.6938281,0.4078125 C12.8838281,0.4078125 14.6583984,0.813046875 16.0175391,1.62351562 C17.3766797,2.43398437 18.3795703,3.60855469 19.0262109,5.14722656 C19.6728516,6.68589844 19.9961719,8.55117187 19.9961719,10.7430469 C19.9961719,13.1275781 19.5928125,15.0441797 18.7860938,16.4928516 C17.979375,17.9415234 16.8462891,18.9980859 15.3868359,19.6625391 C13.9273828,20.3269922 12.2076563,20.6592187 10.2276563,20.6592187 L6.6178125,20.6592187 L6.6178125,36.8578125 L0,36.8578125 Z M6.6178125,15.9925781 L9.1434375,15.9925781 C10.3659375,15.9925781 11.3119922,15.8198437 11.9816016,15.474375 C12.6512109,15.1289062 13.1157422,14.5707422 13.3751953,13.7998828 C13.6346484,13.0290234 13.764375,11.9941406 13.764375,10.6952344 C13.764375,9.37335937 13.6678125,8.30554687 13.4746875,7.49179687 C13.2815625,6.67804687 12.8574609,6.07558594 12.2023828,5.68441406 C11.5473047,5.29324219 10.5271875,5.09765625 9.14203125,5.09765625 L6.6178125,5.09765625 L6.6178125,15.9925781 Z" id="Shape"></path>
                <polygon id="Path" points="26.7134839 36.8578125 26.7134839 0.4078125 42.0043433 0.4078125 42.0043433 5.07023437 33.3312964 5.07023437 33.3312964 15.5742187 40.1551245 15.5742187 40.1551245 20.1958594 33.3312964 20.1958594 33.3312964 32.2839844 42.0943433 32.2839844 42.0943433 36.8578125"></polygon>
                <path d="M48.9574878,36.8578125 L48.9574878,0.4078125 L57.6860815,0.4078125 C60.1315503,0.4078125 62.2034253,0.703242187 63.9017065,1.29410156 C65.5999878,1.88496094 66.8936206,2.88515625 67.782605,4.2946875 C68.6715894,5.70421875 69.1160815,7.62585937 69.1160815,10.0596094 C69.1160815,11.5160156 68.9815503,12.8255859 68.7124878,13.9883203 C68.4434253,15.1510547 67.9827612,16.1453906 67.3304956,16.9713281 C66.67823,17.7972656 65.7811597,18.444375 64.6392847,18.9126562 L69.7214722,36.8578125 L63.0509253,36.8578125 L58.6760815,20.1529687 L55.5753003,20.1529687 L55.5753003,36.8578125 L48.9574878,36.8578125 Z M55.5753003,15.9967969 L57.6727222,15.9967969 C58.9580347,15.9967969 59.9809644,15.8051953 60.7415112,15.4219922 C61.5020581,15.0387891 62.0497925,14.4392578 62.3847144,13.6233984 C62.7196362,12.8075391 62.8870972,11.7433594 62.8870972,10.4308594 C62.8870972,8.59523437 62.5512378,7.22425781 61.879519,6.31792969 C61.2078003,5.41160156 59.918269,4.9584375 58.0109253,4.9584375 L55.5753003,4.9584375 L55.5753003,15.9967969 Z" id="Shape"></path>
                <polygon id="Path" points="77.1937207 36.8578125 77.1937207 0.4078125 92.1379395 0.4078125 92.1379395 4.98164062 83.8115332 4.98164062 83.8115332 15.5988281 90.6473145 15.5988281 90.6473145 20.244375 83.8115332 20.244375 83.8115332 36.8578125"></polygon>
                <path d="M108.683181,37.3324219 C106.083494,37.3324219 104.017712,36.8524219 102.485837,35.8924219 C100.953962,34.9324219 99.8575562,33.5560547 99.1966187,31.7633203 C98.5356812,29.9705859 98.2052124,27.8510156 98.2052124,25.4046094 L98.2052124,11.7288281 C98.2052124,9.26695313 98.539314,7.16191406 99.2075171,5.41371094 C99.8757202,3.66550781 100.972126,2.32617188 102.496736,1.39570313 C104.021345,0.465234375 106.083494,0 108.683181,0 C111.297869,0 113.367751,0.468867188 114.89283,1.40660156 C116.417908,2.34433594 117.514548,3.68367188 118.182751,5.42460938 C118.850955,7.16554688 119.185056,9.26695313 119.185056,11.7288281 L119.185056,25.4264062 C119.185056,27.8582813 118.850955,29.9669531 118.182751,31.7524219 C117.514548,33.5378906 116.417908,34.9142578 114.89283,35.8815234 C113.367751,36.8487891 111.297869,37.3324219 108.683181,37.3324219 Z M108.683181,32.445 C109.769744,32.445 110.580681,32.2023047 111.115994,31.7169141 C111.651306,31.2315234 112.007908,30.5753906 112.185798,29.7485156 C112.363689,28.9216406 112.452634,28.0035938 112.452634,26.994375 L112.452634,10.2058594 C112.452634,9.18117188 112.363689,8.26652344 112.185798,7.46191406 C112.007908,6.65730469 111.651306,6.01957031 111.115994,5.54871094 C110.580681,5.07785156 109.769744,4.84242187 108.683181,4.84242187 C107.627087,4.84242187 106.827869,5.07785156 106.285525,5.54871094 C105.743181,6.01957031 105.382947,6.65730469 105.204822,7.46191406 C105.026697,8.26652344 104.937634,9.18117188 104.937634,10.2058594 L104.937634,26.994375 C104.937634,28.0035938 105.02283,28.9216406 105.19322,29.7485156 C105.363611,30.5753906 105.716111,31.2315234 106.25072,31.7169141 C106.78533,32.2023047 107.59615,32.445 108.683181,32.445 Z" id="Shape"></path>
                <path d="M127.133979,36.8578125 L127.133979,0.4078125 L135.862573,0.4078125 C138.308042,0.4078125 140.379917,0.703242187 142.078198,1.29410156 C143.776479,1.88496094 145.070112,2.88515625 145.959097,4.2946875 C146.848081,5.70421875 147.292573,7.62585937 147.292573,10.0596094 C147.292573,11.5160156 147.158042,12.8255859 146.888979,13.9883203 C146.619917,15.1510547 146.159253,16.1453906 145.506987,16.9713281 C144.854722,17.7972656 143.957651,18.444375 142.815776,18.9126562 L147.897964,36.8578125 L141.227417,36.8578125 L136.852573,20.1529687 L133.751792,20.1529687 L133.751792,36.8578125 L127.133979,36.8578125 Z M133.751792,15.9967969 L135.849214,15.9967969 C137.134526,15.9967969 138.157456,15.8051953 138.918003,15.4219922 C139.67855,15.0387891 140.226284,14.4392578 140.561206,13.6233984 C140.896128,12.8075391 141.063589,11.7433594 141.063589,10.4308594 C141.063589,8.59523437 140.727729,7.22425781 140.056011,6.31792969 C139.384292,5.41160156 138.094761,4.9584375 136.187417,4.9584375 L133.751792,4.9584375 L133.751792,15.9967969 Z" id="Shape"></path>
                <polygon id="Path" points="155.257009 36.8578125 155.908806 0.4078125 162.784666 0.4078125 167.965994 25.6528125 173.330837 0.4078125 180.023181 0.4078125 180.674978 36.8578125 175.743259 36.8578125 175.199041 11.5361719 170.033181 36.8578125 166.014822 36.8578125 160.730837 11.4426562 160.256228 36.8578125"></polygon>
                <path d="M187.228132,36.8578125 L194.52657,0.4078125 L201.637976,0.4078125 L208.912507,36.8578125 L202.75032,36.8578125 L201.317351,28.4442187 L194.961101,28.4442187 L193.461335,36.8578125 L187.228132,36.8578125 Z M195.659304,24.1952344 L200.595945,24.1952344 L198.116726,8.90859375 L195.659304,24.1952344 Z" id="Shape"></path>
                <polygon id="Path" points="215.602397 36.8578125 215.602397 0.4078125 220.205054 0.4078125 229.068647 21.1802344 229.068647 0.4078125 234.553022 0.4078125 234.553022 36.8578125 230.175366 36.8578125 221.246382 15.0616406 221.246382 36.8578125"></polygon>
                <path d="M252.937419,37.3324219 C250.264607,37.3324219 248.169177,36.8117578 246.65113,35.7704297 C245.133083,34.7291016 244.06949,33.2973047 243.460349,31.4750391 C242.851208,29.6527734 242.546638,27.5625 242.546638,25.2042188 L242.546638,12.195 C242.546638,9.7040625 242.851208,7.54746094 243.460349,5.72519531 C244.06949,3.90292969 245.133083,2.49316406 246.65113,1.49589844 C248.169177,0.498632813 250.264607,0 252.937419,0 C255.433982,0 257.396287,0.431601563 258.824333,1.29480469 C260.25238,2.15800781 261.270505,3.37734375 261.878708,4.9528125 C262.486912,6.52828125 262.791013,8.38007813 262.791013,10.5082031 L262.791013,13.5274219 L256.396794,13.5274219 L256.396794,10.4048438 C256.396794,9.38015625 256.344763,8.44710938 256.240701,7.60570313 C256.136638,6.76429688 255.846482,6.09339844 255.370232,5.59300781 C254.893982,5.09261719 254.09031,4.84242187 252.959216,4.84242187 C251.828591,4.84242187 250.999138,5.10738281 250.470857,5.63730469 C249.942576,6.16722656 249.604138,6.87855469 249.455544,7.77128906 C249.306951,8.66402344 249.232654,9.66679688 249.232654,10.7796094 L249.232654,26.6182031 C249.232654,27.9217969 249.340115,29.0054297 249.555037,29.8691016 C249.769958,30.7327734 250.148826,31.3780078 250.691638,31.8048047 C251.234451,32.2316016 251.99031,32.445 252.959216,32.445 C254.06031,32.445 254.848982,32.1839062 255.325232,31.6617187 C255.801482,31.1395313 256.099138,30.4391016 256.218201,29.5604297 C256.337263,28.6817578 256.396794,27.7082812 256.396794,26.64 L256.396794,23.3592188 L262.791013,23.3592188 L262.791013,26.29125 C262.791013,28.4339062 262.501677,30.3372656 261.923005,32.0013281 C261.344333,33.6653906 260.344607,34.9699219 258.923826,35.9149219 C257.503044,36.8599219 255.507576,37.3324219 252.937419,37.3324219 Z" id="Path"></path>
                <polygon id="Path" points="270.41863 36.8578125 270.41863 0.4078125 285.70949 0.4078125 285.70949 5.07023437 277.036443 5.07023437 277.036443 15.5742187 283.860271 15.5742187 283.860271 20.1958594 277.036443 20.1958594 277.036443 32.2839844 285.79949 32.2839844 285.79949 36.8578125"></polygon>
            </g>
        </g>
    </g>
</svg>