<?xml version="1.0" encoding="UTF-8"?>
<svg width="365.702237px" height="81.25px" viewBox="0 0 365.702237 81.25" version="1.1" xmlns="http://www.w3.org/2000/svg" xmlns:xlink="http://www.w3.org/1999/xlink">
    <title>alperformance-logo</title>
    <g id="Page-1" stroke="none" stroke-width="1" fill="none" fill-rule="evenodd">
        <g id="alperformance-logo">
            <g id="image2vector" transform="translate(0.000000, 13.000000)" fill="#EE7B11">
                <path d="M0,68.14 C9.00593742,68.1713333 13.5089061,68.1713333 13.5089061,68.14 C13.5089061,68.093 37.0202371,51.083 37.0202371,51.083 C37.0202371,51.083 37.0032371,68.14 37.0032371,68.14 C37.0032371,68.14 146.013904,68.1766667 364.035237,68.25 C363.997261,61.4400097 363.999173,58.0150146 364.040971,57.9750146 C364.079839,57.9343479 259.052595,57.9343479 48.9592371,57.9750146 C48.9592371,47.8803382 48.9592371,42.833 48.9592371,42.833 C48.9592371,42.833 63.7415487,30.0033561 63.7415487,30.0033561 C63.7415487,30.0033561 68.7036042,35.0055 68.7036042,35.0055 C68.7079625,35.139163 68.7079625,17.9942621 68.7036042,17.9942621 C68.6992458,17.9942621 51.6708259,17.9942621 51.6708259,17.9942621 C51.6708259,17.9942621 56.7087392,23.0188818 56.7087392,23.0188818 C56.7087392,23.0188818 48.4742371,29.4882127 48.3742371,29.4882127 C48.3082371,29.4882127 48.2659037,19.6588085 48.2472371,0 L41.6932371,0 L35.1392371,0 L0,68.14 Z M37.2972371,36.2871449 C26.7552371,45.0890483 21.5025704,49.4516667 21.5392371,49.375 C21.5932371,49.26 37.2122371,22.321 37.2972371,22.4077897 C37.4412371,22.5552632 37.4412371,27.181715 37.2972371,36.2871449 Z" id="path0"></path>
            </g>
            <text id="PERFORMANCE" font-family="Oswald-Medium, Oswald" font-size="45" font-weight="400" letter-spacing="3" fill="#1646C3">
                <tspan x="72.3709199" y="54">PERFORMANCE</tspan>
            </text>
        </g>
    </g>
</svg>